<mxfile host="app.diagrams.net" agent="Mozilla/5.0 (Windows NT 10.0; Win64; x64) AppleWebKit/537.36 (KHTML, like Gecko) Chrome/140.0.0.0 Safari/537.36" version="28.2.0">
  <diagram id="eAsi3E0WpAuNUDg0ExGG" name="Halaman-1">
    <mxGraphModel dx="1348" dy="788" grid="0" gridSize="10" guides="1" tooltips="1" connect="1" arrows="1" fold="1" page="1" pageScale="1" pageWidth="1169" pageHeight="827" background="light-dark(#FFFFFF,#FFFFFF)" math="0" shadow="0">
      <root>
        <mxCell id="0" />
        <mxCell id="1" parent="0" />
        <mxCell id="msg6" value="&lt;font style=&quot;color: light-dark(rgb(0, 0, 0), rgb(0, 0, 0));&quot;&gt;6: secureSessionToken&lt;/font&gt;" style="html=1;verticalAlign=bottom;endArrow=block;dashed=1;fontSize=11;fontColor=light-dark(#FFFFFF,#FFFFFF);strokeColor=light-dark(#D6B656,#000000);strokeWidth=1;exitX=0.1;exitY=0.933;exitDx=0;exitDy=0;exitPerimeter=0;labelBackgroundColor=none;" parent="1" source="act3" edge="1">
          <mxGeometry width="80" relative="1" as="geometry">
            <mxPoint x="602.5" y="434" as="sourcePoint" />
            <mxPoint x="397.5" y="434" as="targetPoint" />
          </mxGeometry>
        </mxCell>
        <mxCell id="authController" value="&lt;font style=&quot;color: light-dark(rgb(0, 0, 0), rgb(0, 0, 0));&quot;&gt;AuthenticationController&lt;/font&gt;" style="shape=umlLifeline;perimeter=lifelinePerimeter;whiteSpace=wrap;html=1;container=1;collapsible=0;recursiveResize=0;outlineConnect=0;fontSize=12;fillColor=none;strokeColor=light-dark(#D6B656,#000000);" parent="1" vertex="1">
          <mxGeometry x="312.5" y="164" width="160" height="500" as="geometry" />
        </mxCell>
        <mxCell id="securityManager" value="&lt;font style=&quot;color: light-dark(rgb(0, 0, 0), rgb(0, 0, 0));&quot;&gt;SecurityManager&lt;/font&gt;" style="shape=umlLifeline;perimeter=lifelinePerimeter;whiteSpace=wrap;html=1;container=1;collapsible=0;recursiveResize=0;outlineConnect=0;fontSize=12;fillColor=none;strokeColor=light-dark(#D6B656,#000000);" parent="1" vertex="1">
          <mxGeometry x="547.5" y="164" width="140" height="500" as="geometry" />
        </mxCell>
        <mxCell id="act3" value="" style="html=1;points=[];perimeter=orthogonalPerimeter;fontSize=11;fillColor=light-dark(#000000,#FFFFFF);strokeColor=light-dark(#D6B656,#000000);" parent="securityManager" vertex="1">
          <mxGeometry x="64" y="130" width="10" height="150" as="geometry" />
        </mxCell>
        <mxCell id="moderatorModel" value="&lt;font style=&quot;color: light-dark(rgb(0, 0, 0), rgb(0, 0, 0));&quot;&gt;ModeratorModel&lt;/font&gt;" style="shape=umlLifeline;perimeter=lifelinePerimeter;whiteSpace=wrap;html=1;container=1;collapsible=0;recursiveResize=0;outlineConnect=0;fontSize=12;fillColor=none;strokeColor=light-dark(#D6B656,#000000);" parent="1" vertex="1">
          <mxGeometry x="752.5" y="164" width="140" height="500" as="geometry" />
        </mxCell>
        <mxCell id="act4" value="" style="html=1;points=[];perimeter=orthogonalPerimeter;fontSize=11;fillColor=light-dark(#000000,#FFFFFF);strokeColor=light-dark(#D6B656,#000000);" parent="moderatorModel" vertex="1">
          <mxGeometry x="65" y="190" width="10" height="40" as="geometry" />
        </mxCell>
        <mxCell id="moderationDashboard" value="&lt;font style=&quot;color: light-dark(rgb(0, 0, 0), rgb(0, 0, 0));&quot;&gt;ModerationDashboard&lt;/font&gt;" style="shape=umlLifeline;perimeter=lifelinePerimeter;whiteSpace=wrap;html=1;container=1;collapsible=0;recursiveResize=0;outlineConnect=0;fontSize=12;fillColor=none;strokeColor=light-dark(#D6B656,#000000);" parent="1" vertex="1">
          <mxGeometry x="932.5" y="164" width="150" height="500" as="geometry" />
        </mxCell>
        <mxCell id="msg1" value="&lt;span&gt;&lt;font style=&quot;color: light-dark(rgb(0, 0, 0), rgb(0, 0, 0));&quot;&gt;1: validateLogin(username, password)&lt;/font&gt;&lt;/span&gt;" style="html=1;verticalAlign=bottom;endArrow=block;fontSize=11;fontColor=light-dark(#FFFFFF,#FFFFFF);strokeColor=light-dark(#D6B656,#000000);strokeWidth=1;labelBackgroundColor=none;" parent="1" edge="1">
          <mxGeometry width="80" relative="1" as="geometry">
            <mxPoint x="187.5" y="274" as="sourcePoint" />
            <mxPoint x="387.5" y="274" as="targetPoint" />
          </mxGeometry>
        </mxCell>
        <mxCell id="msg2" value="&lt;font style=&quot;color: light-dark(rgb(0, 0, 0), rgb(0, 0, 0));&quot;&gt;2: encryptCredentials(credentials)&lt;/font&gt;" style="html=1;verticalAlign=bottom;endArrow=block;fontSize=11;fontColor=light-dark(#6C8EBF, #ffffff);strokeColor=light-dark(#D6B656,#000000);strokeWidth=1;labelBackgroundColor=none;entryX=0.1;entryY=0.071;entryDx=0;entryDy=0;entryPerimeter=0;" parent="1" target="act3" edge="1">
          <mxGeometry width="80" relative="1" as="geometry">
            <mxPoint x="397.5" y="304" as="sourcePoint" />
            <mxPoint x="602.5" y="304" as="targetPoint" />
          </mxGeometry>
        </mxCell>
        <mxCell id="msg3" value="&lt;font style=&quot;color: light-dark(rgb(0, 0, 0), rgb(0, 0, 0));&quot;&gt;3: findByCredentials(encryptedCredentials)&lt;/font&gt;" style="html=1;verticalAlign=bottom;endArrow=block;fontSize=10;fontColor=light-dark(#FFFFFF,#FFFFFF);strokeColor=light-dark(#D6B656,#000000);strokeWidth=1;labelBackgroundColor=none;entryX=-0.013;entryY=0.253;entryDx=0;entryDy=0;entryPerimeter=0;exitX=1.045;exitY=0.467;exitDx=0;exitDy=0;exitPerimeter=0;" parent="1" source="act3" target="act4" edge="1">
          <mxGeometry width="80" relative="1" as="geometry">
            <mxPoint x="622.5" y="364" as="sourcePoint" />
            <mxPoint x="797.5" y="364" as="targetPoint" />
          </mxGeometry>
        </mxCell>
        <mxCell id="msg4" value="&lt;font style=&quot;color: light-dark(rgb(0, 0, 0), rgb(0, 0, 0));&quot;&gt;4: moderatorData&lt;/font&gt;" style="html=1;verticalAlign=bottom;endArrow=block;dashed=1;fontSize=12;fontColor=light-dark(#FFFFFF,#FFFFFF);strokeColor=light-dark(#D6B656,#000000);strokeWidth=1;align=right;labelBackgroundColor=none;exitX=0.025;exitY=0.751;exitDx=0;exitDy=0;exitPerimeter=0;" parent="1" source="act4" edge="1">
          <mxGeometry x="0.125" width="80" relative="1" as="geometry">
            <mxPoint x="797.5" y="384" as="sourcePoint" />
            <mxPoint x="397.5" y="384" as="targetPoint" />
            <mxPoint as="offset" />
          </mxGeometry>
        </mxCell>
        <mxCell id="msg5" value="&lt;font style=&quot;color: light-dark(rgb(0, 0, 0), rgb(0, 0, 0));&quot;&gt;5: generateSecureSession(moderatorData)&lt;/font&gt;" style="verticalAlign=bottom;endArrow=block;fontSize=11;fontColor=light-dark(#FFFFFF,#FFFFFF);strokeColor=light-dark(#D6B656,#000000);strokeWidth=1;labelBackgroundColor=none;html=1;convertToSvg=0;" parent="1" edge="1">
          <mxGeometry width="80" relative="1" as="geometry">
            <mxPoint x="397.5" y="414" as="sourcePoint" />
            <mxPoint x="612.5" y="414" as="targetPoint" />
          </mxGeometry>
        </mxCell>
        <mxCell id="msg7" value="&lt;font style=&quot;color: light-dark(rgb(0, 0, 0), rgb(0, 0, 0));&quot;&gt;7: loginSuccess(sessionToken)&lt;/font&gt;" style="html=1;verticalAlign=bottom;endArrow=block;dashed=1;fontSize=11;fontColor=light-dark(#FFFFFF,#FFFFFF);strokeColor=light-dark(#D6B656,#000000);strokeWidth=1;labelBackgroundColor=none;" parent="1" edge="1">
          <mxGeometry width="80" relative="1" as="geometry">
            <mxPoint x="387.5" y="494" as="sourcePoint" />
            <mxPoint x="187.5" y="494" as="targetPoint" />
          </mxGeometry>
        </mxCell>
        <mxCell id="msg8" value="&lt;font style=&quot;color: light-dark(rgb(0, 0, 0), rgb(0, 0, 0));&quot;&gt;8: redirectToDashboard()&lt;/font&gt;" style="html=1;verticalAlign=bottom;endArrow=block;fontSize=11;fontColor=light-dark(#FFFFFF,#FFFFFF);strokeColor=light-dark(#D6B656,#000000);strokeWidth=1;labelBackgroundColor=none;" parent="1" edge="1">
          <mxGeometry x="0.2393" width="80" relative="1" as="geometry">
            <mxPoint x="187.5" y="554" as="sourcePoint" />
            <mxPoint x="1002.5" y="554" as="targetPoint" />
            <mxPoint as="offset" />
          </mxGeometry>
        </mxCell>
        <mxCell id="act1" value="" style="html=1;points=[];perimeter=orthogonalPerimeter;fontSize=11;fillColor=light-dark(#000000,#FFFFFF);strokeColor=light-dark(#D6B656,#000000);" parent="1" vertex="1">
          <mxGeometry x="177.5" y="255" width="10" height="414" as="geometry" />
        </mxCell>
        <mxCell id="act2" value="" style="html=1;points=[];perimeter=orthogonalPerimeter;fontSize=11;fillColor=light-dark(#000000,#FFFFFF);strokeColor=light-dark(#D6B656,#000000);" parent="1" vertex="1">
          <mxGeometry x="387.5" y="264" width="10" height="290" as="geometry" />
        </mxCell>
        <mxCell id="act5" value="" style="html=1;points=[];perimeter=orthogonalPerimeter;fontSize=11;fillColor=light-dark(#000000,#FFFFFF);strokeColor=light-dark(#D6B656,#000000);" parent="1" vertex="1">
          <mxGeometry x="1002.5" y="544" width="10" height="30" as="geometry" />
        </mxCell>
        <mxCell id="5cRmWee0ZqfdFuxPs_uj-4" value="Text" style="text;html=1;align=center;verticalAlign=middle;resizable=0;points=[];autosize=1;strokeColor=none;fillColor=none;" parent="1" vertex="1">
          <mxGeometry x="585" y="21" width="40" height="26" as="geometry" />
        </mxCell>
        <mxCell id="5cRmWee0ZqfdFuxPs_uj-5" value="Sequence DiagramÂ Sequence Diagram #1 - Moderator Login1 - Moderator Login" style="text;align=center;verticalAlign=middle;resizable=0;points=[];autosize=1;strokeColor=none;fillColor=none;imageAspect=1;fontSize=18;fontColor=light-dark(#000000,#000000);" parent="1" vertex="1">
          <mxGeometry x="287.5" y="97" width="660" height="34" as="geometry" />
        </mxCell>
        <mxCell id="E6tI08Dr9pSPpadBtr7k-2" value="Actor" style="shape=umlActor;verticalLabelPosition=bottom;verticalAlign=top;html=1;outlineConnect=0;strokeColor=light-dark(#000000,#000000);fillColor=light-dark(#FFFFFF,#7EA6E0);" vertex="1" parent="1">
          <mxGeometry x="168" y="176" width="30" height="60" as="geometry" />
        </mxCell>
        <mxCell id="E6tI08Dr9pSPpadBtr7k-4" value="&lt;span style=&quot;color: rgb(237, 237, 237); font-family: Helvetica; font-size: 12px; font-style: normal; font-variant-ligatures: normal; font-variant-caps: normal; font-weight: 400; letter-spacing: normal; orphans: 2; text-indent: 0px; text-transform: none; widows: 2; word-spacing: 0px; -webkit-text-stroke-width: 0px; white-space: normal; text-decoration-thickness: initial; text-decoration-style: initial; text-decoration-color: initial; float: none; display: inline !important;&quot;&gt;Moderator&lt;/span&gt;" style="text;whiteSpace=wrap;html=1;labelBackgroundColor=none;verticalAlign=middle;align=center;" vertex="1" parent="1">
          <mxGeometry x="141.5" y="241" width="83" height="14" as="geometry" />
        </mxCell>
      </root>
    </mxGraphModel>
  </diagram>
</mxfile>
